<mxfile host="app.diagrams.net" modified="2023-10-26T14:03:27.289Z" agent="Mozilla/5.0 (Windows NT 10.0; Win64; x64) AppleWebKit/537.36 (KHTML, like Gecko) Chrome/118.0.0.0 Safari/537.36" etag="BuNi8S15oyd2mHrB7IZN" version="22.0.8" type="device">
  <diagram id="C5RBs43oDa-KdzZeNtuy" name="Page-1">
    <mxGraphModel dx="1122" dy="3079" grid="1" gridSize="10" guides="1" tooltips="1" connect="1" arrows="1" fold="1" page="1" pageScale="1" pageWidth="827" pageHeight="1169" math="0" shadow="0">
      <root>
        <mxCell id="WIyWlLk6GJQsqaUBKTNV-0" />
        <mxCell id="WIyWlLk6GJQsqaUBKTNV-1" parent="WIyWlLk6GJQsqaUBKTNV-0" />
        <mxCell id="GzwksDXFayszBQo7reNW-79" value="" style="rounded=0;whiteSpace=wrap;html=1;fillColor=none;shadow=0;glass=0;container=1;recursiveResize=0;" parent="WIyWlLk6GJQsqaUBKTNV-1" vertex="1">
          <mxGeometry x="760" y="-1600" width="680" height="2860" as="geometry" />
        </mxCell>
        <mxCell id="PNBJq6f99JEJwenBxY8p-17" value="" style="edgeStyle=orthogonalEdgeStyle;rounded=0;orthogonalLoop=1;jettySize=auto;html=1;" edge="1" parent="GzwksDXFayszBQo7reNW-79" source="GzwksDXFayszBQo7reNW-158" target="PNBJq6f99JEJwenBxY8p-16">
          <mxGeometry relative="1" as="geometry" />
        </mxCell>
        <mxCell id="GzwksDXFayszBQo7reNW-158" value="" style="whiteSpace=wrap;html=1;rounded=0;fillColor=none;container=1;recursiveResize=0;" parent="GzwksDXFayszBQo7reNW-79" vertex="1">
          <mxGeometry x="40" y="1060" width="520" height="730" as="geometry" />
        </mxCell>
        <mxCell id="GzwksDXFayszBQo7reNW-175" value="&lt;font style=&quot;font-size: 20px;&quot;&gt;&lt;font style=&quot;font-size: 20px;&quot;&gt;&lt;b style=&quot;&quot;&gt;Phase two:&amp;nbsp;&lt;/b&gt;&lt;/font&gt;&lt;b&gt;Convert to SPH and relax&lt;/b&gt;&lt;/font&gt;" style="text;html=1;strokeColor=none;fillColor=none;align=center;verticalAlign=middle;whiteSpace=wrap;rounded=0;" parent="GzwksDXFayszBQo7reNW-158" vertex="1">
          <mxGeometry x="40" width="440" height="30" as="geometry" />
        </mxCell>
        <mxCell id="PNBJq6f99JEJwenBxY8p-2" value="" style="edgeStyle=orthogonalEdgeStyle;rounded=0;orthogonalLoop=1;jettySize=auto;html=1;" edge="1" parent="GzwksDXFayszBQo7reNW-158" source="M_gOwme07G2UOisn0Ahi-7" target="PNBJq6f99JEJwenBxY8p-1">
          <mxGeometry relative="1" as="geometry" />
        </mxCell>
        <mxCell id="M_gOwme07G2UOisn0Ahi-7" value="Define core particle mass" style="rounded=1;whiteSpace=wrap;html=1;" parent="GzwksDXFayszBQo7reNW-158" vertex="1">
          <mxGeometry x="160" y="50" width="200" height="40" as="geometry" />
        </mxCell>
        <mxCell id="PNBJq6f99JEJwenBxY8p-4" value="" style="edgeStyle=orthogonalEdgeStyle;rounded=0;orthogonalLoop=1;jettySize=auto;html=1;" edge="1" parent="GzwksDXFayszBQo7reNW-158" source="PNBJq6f99JEJwenBxY8p-1" target="PNBJq6f99JEJwenBxY8p-3">
          <mxGeometry relative="1" as="geometry" />
        </mxCell>
        <mxCell id="PNBJq6f99JEJwenBxY8p-1" value="Convert evolved giant to 50k SPH particles and a core particle" style="whiteSpace=wrap;html=1;rounded=0;" vertex="1" parent="GzwksDXFayszBQo7reNW-158">
          <mxGeometry x="200" y="130" width="120" height="60" as="geometry" />
        </mxCell>
        <mxCell id="PNBJq6f99JEJwenBxY8p-6" value="" style="edgeStyle=orthogonalEdgeStyle;rounded=0;orthogonalLoop=1;jettySize=auto;html=1;" edge="1" parent="GzwksDXFayszBQo7reNW-158" source="PNBJq6f99JEJwenBxY8p-3" target="PNBJq6f99JEJwenBxY8p-5">
          <mxGeometry relative="1" as="geometry" />
        </mxCell>
        <mxCell id="PNBJq6f99JEJwenBxY8p-3" value="Set settings and parameters for&lt;br&gt;hydro code" style="whiteSpace=wrap;html=1;rounded=0;" vertex="1" parent="GzwksDXFayszBQo7reNW-158">
          <mxGeometry x="200" y="230" width="120" height="60" as="geometry" />
        </mxCell>
        <mxCell id="PNBJq6f99JEJwenBxY8p-8" value="" style="edgeStyle=orthogonalEdgeStyle;rounded=0;orthogonalLoop=1;jettySize=auto;html=1;" edge="1" parent="GzwksDXFayszBQo7reNW-158" source="PNBJq6f99JEJwenBxY8p-5" target="PNBJq6f99JEJwenBxY8p-7">
          <mxGeometry relative="1" as="geometry" />
        </mxCell>
        <mxCell id="PNBJq6f99JEJwenBxY8p-5" value="Evolve_model() until defined end time of 10 x t_dyn." style="whiteSpace=wrap;html=1;rounded=0;" vertex="1" parent="GzwksDXFayszBQo7reNW-158">
          <mxGeometry x="200" y="330" width="120" height="60" as="geometry" />
        </mxCell>
        <mxCell id="PNBJq6f99JEJwenBxY8p-10" value="" style="edgeStyle=orthogonalEdgeStyle;rounded=0;orthogonalLoop=1;jettySize=auto;html=1;" edge="1" parent="GzwksDXFayszBQo7reNW-158" source="PNBJq6f99JEJwenBxY8p-7" target="PNBJq6f99JEJwenBxY8p-9">
          <mxGeometry relative="1" as="geometry" />
        </mxCell>
        <mxCell id="PNBJq6f99JEJwenBxY8p-7" value="Apply relaxation to the particles" style="whiteSpace=wrap;html=1;rounded=0;" vertex="1" parent="GzwksDXFayszBQo7reNW-158">
          <mxGeometry x="200" y="430" width="120" height="60" as="geometry" />
        </mxCell>
        <mxCell id="PNBJq6f99JEJwenBxY8p-12" value="" style="edgeStyle=orthogonalEdgeStyle;rounded=0;orthogonalLoop=1;jettySize=auto;html=1;entryX=0.5;entryY=0;entryDx=0;entryDy=0;" edge="1" parent="GzwksDXFayszBQo7reNW-158" source="PNBJq6f99JEJwenBxY8p-9" target="PNBJq6f99JEJwenBxY8p-13">
          <mxGeometry relative="1" as="geometry">
            <mxPoint x="260" y="630" as="targetPoint" />
          </mxGeometry>
        </mxCell>
        <mxCell id="PNBJq6f99JEJwenBxY8p-9" value="Save relaxed model&lt;br&gt;and energies to file" style="shape=parallelogram;perimeter=parallelogramPerimeter;whiteSpace=wrap;html=1;fixedSize=1;rounded=0;" vertex="1" parent="GzwksDXFayszBQo7reNW-158">
          <mxGeometry x="180" y="530" width="160" height="60" as="geometry" />
        </mxCell>
        <mxCell id="PNBJq6f99JEJwenBxY8p-13" value="Return" style="rounded=1;whiteSpace=wrap;html=1;" vertex="1" parent="GzwksDXFayszBQo7reNW-158">
          <mxGeometry x="160" y="630" width="200" height="40" as="geometry" />
        </mxCell>
        <mxCell id="GzwksDXFayszBQo7reNW-143" value="" style="edgeStyle=orthogonalEdgeStyle;rounded=0;orthogonalLoop=1;jettySize=auto;html=1;" parent="GzwksDXFayszBQo7reNW-79" source="GzwksDXFayszBQo7reNW-94" target="GzwksDXFayszBQo7reNW-142" edge="1">
          <mxGeometry relative="1" as="geometry" />
        </mxCell>
        <mxCell id="GzwksDXFayszBQo7reNW-94" value="" style="rounded=0;whiteSpace=wrap;html=1;container=1;recursiveResize=0;fillColor=none;" parent="GzwksDXFayszBQo7reNW-79" vertex="1">
          <mxGeometry x="40" y="390" width="520" height="400" as="geometry">
            <mxRectangle x="80" y="400" width="50" height="40" as="alternateBounds" />
          </mxGeometry>
        </mxCell>
        <mxCell id="GzwksDXFayszBQo7reNW-134" value="&lt;font style=&quot;font-size: 20px;&quot;&gt;&lt;b&gt;Phase one:&amp;nbsp;Triple setup and evolution&lt;/b&gt;&lt;/font&gt;" style="text;html=1;strokeColor=none;fillColor=none;align=center;verticalAlign=middle;whiteSpace=wrap;rounded=0;" parent="GzwksDXFayszBQo7reNW-94" vertex="1">
          <mxGeometry x="30" y="1" width="440" height="30" as="geometry" />
        </mxCell>
        <mxCell id="GzwksDXFayszBQo7reNW-137" style="edgeStyle=orthogonalEdgeStyle;rounded=0;orthogonalLoop=1;jettySize=auto;html=1;exitX=0.5;exitY=1;exitDx=0;exitDy=0;" parent="GzwksDXFayszBQo7reNW-94" source="GzwksDXFayszBQo7reNW-135" target="GzwksDXFayszBQo7reNW-136" edge="1">
          <mxGeometry relative="1" as="geometry" />
        </mxCell>
        <mxCell id="GzwksDXFayszBQo7reNW-135" value="Set winds to 0&lt;br&gt;Calculate stopping radius" style="rounded=1;whiteSpace=wrap;html=1;" parent="GzwksDXFayszBQo7reNW-94" vertex="1">
          <mxGeometry x="160" y="40" width="200" height="40" as="geometry" />
        </mxCell>
        <mxCell id="GzwksDXFayszBQo7reNW-139" value="" style="edgeStyle=orthogonalEdgeStyle;rounded=0;orthogonalLoop=1;jettySize=auto;html=1;" parent="GzwksDXFayszBQo7reNW-94" source="GzwksDXFayszBQo7reNW-136" target="GzwksDXFayszBQo7reNW-138" edge="1">
          <mxGeometry relative="1" as="geometry" />
        </mxCell>
        <mxCell id="GzwksDXFayszBQo7reNW-136" value="Evolve giant until stopping radius&lt;br&gt;using MESA2208" style="rounded=0;whiteSpace=wrap;html=1;" parent="GzwksDXFayszBQo7reNW-94" vertex="1">
          <mxGeometry x="200" y="120" width="120" height="60" as="geometry" />
        </mxCell>
        <mxCell id="GzwksDXFayszBQo7reNW-141" style="edgeStyle=orthogonalEdgeStyle;rounded=0;orthogonalLoop=1;jettySize=auto;html=1;exitX=0.5;exitY=1;exitDx=0;exitDy=0;entryX=0.5;entryY=0;entryDx=0;entryDy=0;" parent="GzwksDXFayszBQo7reNW-94" source="GzwksDXFayszBQo7reNW-138" target="GzwksDXFayszBQo7reNW-140" edge="1">
          <mxGeometry relative="1" as="geometry" />
        </mxCell>
        <mxCell id="GzwksDXFayszBQo7reNW-140" value="Return" style="rounded=1;whiteSpace=wrap;html=1;" parent="GzwksDXFayszBQo7reNW-94" vertex="1">
          <mxGeometry x="160" y="320" width="200" height="40" as="geometry" />
        </mxCell>
        <mxCell id="GzwksDXFayszBQo7reNW-145" value="" style="group;fillColor=none;strokeColor=none;fontColor=#333333;" parent="GzwksDXFayszBQo7reNW-94" vertex="1" connectable="0">
          <mxGeometry x="200" y="230" width="250" height="60" as="geometry" />
        </mxCell>
        <mxCell id="GzwksDXFayszBQo7reNW-138" value="Evolve the binary stars for the same duration" style="rounded=0;whiteSpace=wrap;html=1;" parent="GzwksDXFayszBQo7reNW-145" vertex="1">
          <mxGeometry width="120" height="60" as="geometry" />
        </mxCell>
        <mxCell id="GzwksDXFayszBQo7reNW-144" value="&lt;i&gt;&lt;font color=&quot;#ff6666&quot;&gt;(Doesnt seem to actually do anything)&lt;/font&gt;&lt;/i&gt;" style="text;html=1;strokeColor=none;fillColor=none;align=center;verticalAlign=middle;whiteSpace=wrap;rounded=0;" parent="GzwksDXFayszBQo7reNW-145" vertex="1">
          <mxGeometry x="120" width="130" height="60" as="geometry" />
        </mxCell>
        <mxCell id="GzwksDXFayszBQo7reNW-82" value="" style="edgeStyle=orthogonalEdgeStyle;rounded=0;orthogonalLoop=1;jettySize=auto;html=1;" parent="GzwksDXFayszBQo7reNW-79" source="GzwksDXFayszBQo7reNW-80" target="GzwksDXFayszBQo7reNW-81" edge="1">
          <mxGeometry relative="1" as="geometry" />
        </mxCell>
        <mxCell id="GzwksDXFayszBQo7reNW-80" value="imports&lt;br&gt;set up simulation parameters" style="rounded=1;whiteSpace=wrap;html=1;" parent="GzwksDXFayszBQo7reNW-79" vertex="1">
          <mxGeometry x="200" y="90" width="200" height="40" as="geometry" />
        </mxCell>
        <mxCell id="GzwksDXFayszBQo7reNW-84" value="" style="edgeStyle=orthogonalEdgeStyle;rounded=0;orthogonalLoop=1;jettySize=auto;html=1;" parent="GzwksDXFayszBQo7reNW-79" source="GzwksDXFayszBQo7reNW-81" target="GzwksDXFayszBQo7reNW-83" edge="1">
          <mxGeometry relative="1" as="geometry" />
        </mxCell>
        <mxCell id="GzwksDXFayszBQo7reNW-83" value="Initialise triple system" style="whiteSpace=wrap;html=1;rounded=0;" parent="GzwksDXFayszBQo7reNW-79" vertex="1">
          <mxGeometry x="240" y="290" width="120" height="60" as="geometry" />
        </mxCell>
        <mxCell id="GzwksDXFayszBQo7reNW-78" value="&lt;h1 style=&quot;border-color: var(--border-color); line-height: 18px;&quot;&gt;&lt;font style=&quot;font-size: 20px;&quot;&gt;Adam&#39;s code (no accretion)&lt;/font&gt;&lt;/h1&gt;" style="text;html=1;strokeColor=none;fillColor=none;align=center;verticalAlign=middle;whiteSpace=wrap;rounded=0;" parent="GzwksDXFayszBQo7reNW-79" vertex="1">
          <mxGeometry x="40" width="520" height="40" as="geometry" />
        </mxCell>
        <mxCell id="GzwksDXFayszBQo7reNW-87" value="" style="endArrow=classic;html=1;rounded=1;exitX=1;exitY=0.5;exitDx=0;exitDy=0;entryX=0.942;entryY=1.001;entryDx=0;entryDy=0;entryPerimeter=0;edgeStyle=orthogonalEdgeStyle;strokeWidth=2;dashed=1;" parent="GzwksDXFayszBQo7reNW-79" source="GzwksDXFayszBQo7reNW-81" target="GzwksDXFayszBQo7reNW-79" edge="1">
          <mxGeometry width="50" height="50" relative="1" as="geometry">
            <mxPoint x="-50" y="340" as="sourcePoint" />
            <mxPoint x="710" y="320" as="targetPoint" />
            <Array as="points">
              <mxPoint x="641" y="215" />
            </Array>
          </mxGeometry>
        </mxCell>
        <mxCell id="GzwksDXFayszBQo7reNW-95" value="" style="endArrow=classic;html=1;rounded=0;exitX=0.5;exitY=1;exitDx=0;exitDy=0;" parent="GzwksDXFayszBQo7reNW-79" source="GzwksDXFayszBQo7reNW-83" target="GzwksDXFayszBQo7reNW-94" edge="1">
          <mxGeometry width="50" height="50" relative="1" as="geometry">
            <mxPoint x="-90" y="540" as="sourcePoint" />
            <mxPoint x="340" y="400" as="targetPoint" />
          </mxGeometry>
        </mxCell>
        <mxCell id="GzwksDXFayszBQo7reNW-149" style="edgeStyle=orthogonalEdgeStyle;rounded=0;orthogonalLoop=1;jettySize=auto;html=1;exitX=0.5;exitY=1;exitDx=0;exitDy=0;" parent="GzwksDXFayszBQo7reNW-79" source="GzwksDXFayszBQo7reNW-142" target="GzwksDXFayszBQo7reNW-148" edge="1">
          <mxGeometry relative="1" as="geometry" />
        </mxCell>
        <mxCell id="GzwksDXFayszBQo7reNW-142" value="Update triple with evolved parameters" style="whiteSpace=wrap;html=1;fillColor=none;rounded=0;" parent="GzwksDXFayszBQo7reNW-79" vertex="1">
          <mxGeometry x="240" y="830" width="120" height="60" as="geometry" />
        </mxCell>
        <mxCell id="GzwksDXFayszBQo7reNW-157" value="" style="edgeStyle=orthogonalEdgeStyle;rounded=0;orthogonalLoop=1;jettySize=auto;html=1;" parent="GzwksDXFayszBQo7reNW-79" source="GzwksDXFayszBQo7reNW-148" target="GzwksDXFayszBQo7reNW-156" edge="1">
          <mxGeometry relative="1" as="geometry" />
        </mxCell>
        <mxCell id="GzwksDXFayszBQo7reNW-159" value="" style="edgeStyle=orthogonalEdgeStyle;rounded=0;orthogonalLoop=1;jettySize=auto;html=1;" parent="GzwksDXFayszBQo7reNW-79" source="GzwksDXFayszBQo7reNW-148" target="GzwksDXFayszBQo7reNW-158" edge="1">
          <mxGeometry relative="1" as="geometry" />
        </mxCell>
        <mxCell id="GzwksDXFayszBQo7reNW-160" value="" style="group" parent="GzwksDXFayszBQo7reNW-79" vertex="1" connectable="0">
          <mxGeometry x="220" y="180" width="189" height="95.326463022508" as="geometry" />
        </mxCell>
        <mxCell id="GzwksDXFayszBQo7reNW-81" value="Does a simulation &lt;br&gt;snapshot exist?" style="rhombus;whiteSpace=wrap;html=1;rounded=0;" parent="GzwksDXFayszBQo7reNW-160" vertex="1">
          <mxGeometry width="160" height="70" as="geometry" />
        </mxCell>
        <mxCell id="GzwksDXFayszBQo7reNW-88" value="&lt;h3&gt;Yes&lt;/h3&gt;" style="text;html=1;strokeColor=none;fillColor=none;spacing=5;spacingTop=-20;whiteSpace=wrap;overflow=hidden;rounded=0;align=center;" parent="GzwksDXFayszBQo7reNW-160" vertex="1">
          <mxGeometry x="150" y="10.004919614147866" width="39" height="25.321543408360128" as="geometry" />
        </mxCell>
        <mxCell id="GzwksDXFayszBQo7reNW-89" value="&lt;h3&gt;No&lt;/h3&gt;&lt;div&gt;&lt;br&gt;&lt;/div&gt;" style="text;html=1;strokeColor=none;fillColor=none;spacing=5;spacingTop=-20;whiteSpace=wrap;overflow=hidden;rounded=0;align=center;" parent="GzwksDXFayszBQo7reNW-160" vertex="1">
          <mxGeometry x="80" y="70.00491961414787" width="30" height="25.321543408360128" as="geometry" />
        </mxCell>
        <mxCell id="GzwksDXFayszBQo7reNW-161" value="" style="group" parent="GzwksDXFayszBQo7reNW-79" vertex="1" connectable="0">
          <mxGeometry x="210" y="939" width="199" height="99.32646302250805" as="geometry" />
        </mxCell>
        <mxCell id="GzwksDXFayszBQo7reNW-148" value="Does a relaxed&lt;br&gt;giant model exist?" style="rhombus;whiteSpace=wrap;html=1;rounded=0;" parent="GzwksDXFayszBQo7reNW-161" vertex="1">
          <mxGeometry width="180" height="74" as="geometry" />
        </mxCell>
        <mxCell id="GzwksDXFayszBQo7reNW-151" value="&lt;h3&gt;Yes&lt;/h3&gt;" style="text;html=1;strokeColor=none;fillColor=none;spacing=5;spacingTop=-20;whiteSpace=wrap;overflow=hidden;rounded=0;align=center;" parent="GzwksDXFayszBQo7reNW-161" vertex="1">
          <mxGeometry x="160" y="7.004919614147866" width="39" height="25.321543408360128" as="geometry" />
        </mxCell>
        <mxCell id="GzwksDXFayszBQo7reNW-152" value="&lt;h3&gt;No&lt;/h3&gt;&lt;div&gt;&lt;br&gt;&lt;/div&gt;" style="text;html=1;strokeColor=none;fillColor=none;spacing=5;spacingTop=-20;whiteSpace=wrap;overflow=hidden;rounded=0;align=center;" parent="GzwksDXFayszBQo7reNW-161" vertex="1">
          <mxGeometry x="89.5" y="74.00491961414787" width="30" height="25.321543408360128" as="geometry" />
        </mxCell>
        <mxCell id="GzwksDXFayszBQo7reNW-163" value="" style="group" parent="GzwksDXFayszBQo7reNW-79" vertex="1" connectable="0">
          <mxGeometry x="440" y="946" width="160" height="60" as="geometry" />
        </mxCell>
        <mxCell id="GzwksDXFayszBQo7reNW-156" value="Load relaxed&lt;br&gt;giant model" style="shape=parallelogram;perimeter=parallelogramPerimeter;whiteSpace=wrap;html=1;fixedSize=1;rounded=0;" parent="GzwksDXFayszBQo7reNW-163" vertex="1">
          <mxGeometry width="120" height="60" as="geometry" />
        </mxCell>
        <mxCell id="DtGymJpomRaIwwKiFIf4-16" value="" style="shape=umlActor;verticalLabelPosition=bottom;verticalAlign=top;html=1;outlineConnect=0;" parent="GzwksDXFayszBQo7reNW-79" vertex="1">
          <mxGeometry x="70" y="330" width="30" height="60" as="geometry" />
        </mxCell>
        <mxCell id="_zOlBHXcYFgcANZDZTEM-0" value="&lt;font style=&quot;font-size: 8px;&quot;&gt;Hello :)&lt;/font&gt;" style="text;html=1;strokeColor=none;fillColor=none;align=center;verticalAlign=middle;whiteSpace=wrap;rounded=0;" parent="GzwksDXFayszBQo7reNW-79" vertex="1">
          <mxGeometry x="80" y="310" width="60" height="30" as="geometry" />
        </mxCell>
        <mxCell id="PNBJq6f99JEJwenBxY8p-15" style="rounded=0;orthogonalLoop=1;jettySize=auto;html=1;exitX=1;exitY=0.5;exitDx=0;exitDy=0;entryX=1;entryY=0.5;entryDx=0;entryDy=0;edgeStyle=elbowEdgeStyle;strokeWidth=2;dashed=1;dashPattern=1 1;strokeColor=default;" edge="1" parent="GzwksDXFayszBQo7reNW-79" source="GzwksDXFayszBQo7reNW-156" target="PNBJq6f99JEJwenBxY8p-16">
          <mxGeometry relative="1" as="geometry">
            <Array as="points">
              <mxPoint x="600" y="1020" />
            </Array>
          </mxGeometry>
        </mxCell>
        <mxCell id="PNBJq6f99JEJwenBxY8p-16" value="Set up Nbody code for inner binary" style="whiteSpace=wrap;html=1;fillColor=none;rounded=0;" vertex="1" parent="GzwksDXFayszBQo7reNW-79">
          <mxGeometry x="240" y="1840" width="120" height="60" as="geometry" />
        </mxCell>
        <mxCell id="GzwksDXFayszBQo7reNW-93" value="" style="rounded=0;whiteSpace=wrap;html=1;fillColor=none;container=1;recursiveResize=0;" parent="WIyWlLk6GJQsqaUBKTNV-1" vertex="1">
          <mxGeometry x="80" y="-1600" width="639.5" height="2740" as="geometry" />
        </mxCell>
        <mxCell id="GzwksDXFayszBQo7reNW-197" style="edgeStyle=orthogonalEdgeStyle;rounded=0;orthogonalLoop=1;jettySize=auto;html=1;exitX=0.5;exitY=1;exitDx=0;exitDy=0;entryX=0.5;entryY=0;entryDx=0;entryDy=0;" parent="GzwksDXFayszBQo7reNW-93" source="GzwksDXFayszBQo7reNW-0" target="GzwksDXFayszBQo7reNW-187" edge="1">
          <mxGeometry relative="1" as="geometry" />
        </mxCell>
        <mxCell id="GzwksDXFayszBQo7reNW-0" value="&lt;p style=&quot;line-height: 0%;&quot;&gt;&lt;/p&gt;&lt;pre style=&quot;line-height: 150%;&quot;&gt;&lt;br&gt;&lt;/pre&gt;&lt;p&gt;&lt;/p&gt;" style="rounded=0;whiteSpace=wrap;html=1;glass=0;shadow=0;gradientColor=none;fillColor=none;movable=1;resizable=1;rotatable=1;deletable=1;editable=1;locked=0;connectable=1;container=1;align=center;noLabel=0;dropTarget=1;expand=1;backgroundOutline=0;autosize=1;recursiveResize=0;" parent="GzwksDXFayszBQo7reNW-93" vertex="1">
          <mxGeometry x="59.25" y="370" width="520.5" height="450" as="geometry">
            <mxRectangle x="40" y="-1120" width="50" height="40" as="alternateBounds" />
          </mxGeometry>
        </mxCell>
        <mxCell id="GzwksDXFayszBQo7reNW-11" value="" style="edgeStyle=orthogonalEdgeStyle;rounded=0;orthogonalLoop=1;jettySize=auto;html=1;" parent="GzwksDXFayszBQo7reNW-0" source="GzwksDXFayszBQo7reNW-3" target="GzwksDXFayszBQo7reNW-12" edge="1">
          <mxGeometry relative="1" as="geometry">
            <mxPoint x="190" y="177.79977491961415" as="targetPoint" />
          </mxGeometry>
        </mxCell>
        <mxCell id="GzwksDXFayszBQo7reNW-3" value="imports&lt;br&gt;load xiTau parameters" style="rounded=1;whiteSpace=wrap;html=1;" parent="GzwksDXFayszBQo7reNW-0" vertex="1">
          <mxGeometry x="60" y="70" width="200" height="40" as="geometry" />
        </mxCell>
        <mxCell id="GzwksDXFayszBQo7reNW-14" value="" style="edgeStyle=orthogonalEdgeStyle;rounded=0;orthogonalLoop=1;jettySize=auto;html=1;" parent="GzwksDXFayszBQo7reNW-0" source="GzwksDXFayszBQo7reNW-12" target="GzwksDXFayszBQo7reNW-13" edge="1">
          <mxGeometry relative="1" as="geometry" />
        </mxCell>
        <mxCell id="GzwksDXFayszBQo7reNW-12" value="Evolve 1 time step with EVtwin" style="rounded=0;whiteSpace=wrap;html=1;" parent="GzwksDXFayszBQo7reNW-0" vertex="1">
          <mxGeometry x="100" y="147.79823151125402" width="120" height="50.643086816720256" as="geometry" />
        </mxCell>
        <mxCell id="GzwksDXFayszBQo7reNW-27" value="" style="edgeStyle=orthogonalEdgeStyle;rounded=0;orthogonalLoop=1;jettySize=auto;html=1;" parent="GzwksDXFayszBQo7reNW-0" source="GzwksDXFayszBQo7reNW-13" target="GzwksDXFayszBQo7reNW-26" edge="1">
          <mxGeometry relative="1" as="geometry" />
        </mxCell>
        <mxCell id="GzwksDXFayszBQo7reNW-29" value="" style="edgeStyle=orthogonalEdgeStyle;rounded=0;orthogonalLoop=1;jettySize=auto;html=1;" parent="GzwksDXFayszBQo7reNW-0" source="GzwksDXFayszBQo7reNW-26" target="GzwksDXFayszBQo7reNW-132" edge="1">
          <mxGeometry relative="1" as="geometry">
            <mxPoint x="400" y="203.12131832797468" as="targetPoint" />
          </mxGeometry>
        </mxCell>
        <mxCell id="GzwksDXFayszBQo7reNW-34" style="edgeStyle=orthogonalEdgeStyle;rounded=0;orthogonalLoop=1;jettySize=auto;html=1;exitX=0.5;exitY=1;exitDx=0;exitDy=0;entryX=0.5;entryY=0;entryDx=0;entryDy=0;" parent="GzwksDXFayszBQo7reNW-0" source="GzwksDXFayszBQo7reNW-26" target="GzwksDXFayszBQo7reNW-36" edge="1">
          <mxGeometry relative="1" as="geometry">
            <mxPoint x="400" y="414.1341800643087" as="targetPoint" />
          </mxGeometry>
        </mxCell>
        <mxCell id="GzwksDXFayszBQo7reNW-30" style="edgeStyle=orthogonalEdgeStyle;rounded=0;orthogonalLoop=1;jettySize=auto;html=1;exitX=0;exitY=0.5;exitDx=0;exitDy=0;entryX=1;entryY=0.5;entryDx=0;entryDy=0;" parent="GzwksDXFayszBQo7reNW-0" source="GzwksDXFayszBQo7reNW-132" target="GzwksDXFayszBQo7reNW-12" edge="1">
          <mxGeometry relative="1" as="geometry">
            <mxPoint x="340" y="177.79977491961426" as="sourcePoint" />
          </mxGeometry>
        </mxCell>
        <mxCell id="GzwksDXFayszBQo7reNW-36" value="Save model and stop" style="rounded=1;whiteSpace=wrap;html=1;" parent="GzwksDXFayszBQo7reNW-0" vertex="1">
          <mxGeometry x="300" y="350" width="200" height="40" as="geometry" />
        </mxCell>
        <mxCell id="GzwksDXFayszBQo7reNW-39" value="" style="endArrow=classic;html=1;rounded=1;exitX=0;exitY=0.5;exitDx=0;exitDy=0;entryX=0;entryY=0.5;entryDx=0;entryDy=0;edgeStyle=orthogonalEdgeStyle;" parent="GzwksDXFayszBQo7reNW-0" source="GzwksDXFayszBQo7reNW-13" target="GzwksDXFayszBQo7reNW-12" edge="1">
          <mxGeometry width="50" height="50" relative="1" as="geometry">
            <mxPoint x="310" y="295.9669774919614" as="sourcePoint" />
            <mxPoint x="360" y="253.76440514469454" as="targetPoint" />
            <Array as="points">
              <mxPoint x="31" y="279" />
              <mxPoint x="31" y="173" />
            </Array>
          </mxGeometry>
        </mxCell>
        <mxCell id="GzwksDXFayszBQo7reNW-59" value="&lt;h1 style=&quot;border-color: var(--border-color); line-height: 18px;&quot;&gt;&lt;font style=&quot;font-size: 20px;&quot;&gt;A_evolve_outer_star_to_giant.py&lt;/font&gt;&lt;/h1&gt;" style="text;html=1;strokeColor=none;fillColor=none;align=center;verticalAlign=middle;whiteSpace=wrap;rounded=0;" parent="GzwksDXFayszBQo7reNW-0" vertex="1">
          <mxGeometry x="40" width="440" height="40" as="geometry" />
        </mxCell>
        <mxCell id="GzwksDXFayszBQo7reNW-132" value="Save model&amp;nbsp;" style="shape=parallelogram;perimeter=parallelogramPerimeter;whiteSpace=wrap;html=1;fixedSize=1;" parent="GzwksDXFayszBQo7reNW-0" vertex="1">
          <mxGeometry x="340" y="143.12" width="120" height="60" as="geometry" />
        </mxCell>
        <mxCell id="GzwksDXFayszBQo7reNW-146" value="" style="group" parent="GzwksDXFayszBQo7reNW-0" vertex="1" connectable="0">
          <mxGeometry x="330" y="220" width="140" height="118.17" as="geometry" />
        </mxCell>
        <mxCell id="GzwksDXFayszBQo7reNW-23" value="&lt;h3&gt;Yes&lt;/h3&gt;" style="text;html=1;strokeColor=none;fillColor=none;spacing=5;spacingTop=-20;whiteSpace=wrap;overflow=hidden;rounded=0;align=center;" parent="GzwksDXFayszBQo7reNW-146" vertex="1">
          <mxGeometry x="70" y="92.84774689631301" width="34.125" height="25.32225310368698" as="geometry" />
        </mxCell>
        <mxCell id="GzwksDXFayszBQo7reNW-26" value="Radius larger&lt;br&gt;than 110 Rsol?" style="rhombus;whiteSpace=wrap;html=1;rounded=0;" parent="GzwksDXFayszBQo7reNW-146" vertex="1">
          <mxGeometry y="25.321738619814397" width="140" height="67.52600827649862" as="geometry" />
        </mxCell>
        <mxCell id="GzwksDXFayszBQo7reNW-32" value="&lt;h3&gt;No&lt;/h3&gt;&lt;div&gt;&lt;br&gt;&lt;/div&gt;" style="text;html=1;strokeColor=none;fillColor=none;spacing=5;spacingTop=-20;whiteSpace=wrap;overflow=hidden;rounded=0;align=center;" parent="GzwksDXFayszBQo7reNW-146" vertex="1">
          <mxGeometry x="70" width="26.25" height="25.32225310368698" as="geometry" />
        </mxCell>
        <mxCell id="GzwksDXFayszBQo7reNW-147" value="" style="group" parent="GzwksDXFayszBQo7reNW-0" vertex="1" connectable="0">
          <mxGeometry x="70" y="245.32" width="190" height="67.52" as="geometry" />
        </mxCell>
        <mxCell id="GzwksDXFayszBQo7reNW-13" value="Radius larger&lt;br&gt;than 10 Rsol?" style="rhombus;whiteSpace=wrap;html=1;rounded=0;" parent="GzwksDXFayszBQo7reNW-147" vertex="1">
          <mxGeometry x="18.095238095238095" width="144.76190476190476" height="67.52" as="geometry" />
        </mxCell>
        <mxCell id="GzwksDXFayszBQo7reNW-19" value="&lt;h3&gt;No&lt;/h3&gt;&lt;div&gt;&lt;br&gt;&lt;/div&gt;" style="text;html=1;strokeColor=none;fillColor=none;spacing=5;spacingTop=-20;whiteSpace=wrap;overflow=hidden;rounded=0;align=center;" parent="GzwksDXFayszBQo7reNW-147" vertex="1">
          <mxGeometry y="8.44" width="27.14285714285714" height="25.32" as="geometry" />
        </mxCell>
        <mxCell id="GzwksDXFayszBQo7reNW-35" value="&lt;h3&gt;Yes&lt;/h3&gt;" style="text;html=1;strokeColor=none;fillColor=none;spacing=5;spacingTop=-20;whiteSpace=wrap;overflow=hidden;rounded=0;align=center;" parent="GzwksDXFayszBQo7reNW-147" vertex="1">
          <mxGeometry x="154.71428571428572" y="8.44" width="35.28571428571428" height="25.32" as="geometry" />
        </mxCell>
        <mxCell id="GzwksDXFayszBQo7reNW-92" value="&lt;h1 style=&quot;border-color: var(--border-color); line-height: 18px; font-size: 23px;&quot;&gt;&lt;font style=&quot;font-size: 20px;&quot;&gt;Nathan&#39;s code (Hila&#39;s TCE github)&lt;/font&gt;&lt;/h1&gt;&lt;div style=&quot;font-size: 20px;&quot;&gt;&lt;font style=&quot;font-size: 20px;&quot;&gt;/articles/deVries...2013/: Originals converted to python3&amp;nbsp; &amp;nbsp; &amp;nbsp;&amp;nbsp;&lt;/font&gt;&lt;/div&gt;&lt;div style=&quot;font-size: 20px;&quot;&gt;&lt;font style=&quot;font-size: 20px;&quot;&gt;/articles/: With Hila&#39;s changes&lt;/font&gt;&lt;/div&gt;&lt;div style=&quot;font-size: 16px;&quot;&gt;&lt;font style=&quot;font-size: 20px;&quot;&gt;&lt;br&gt;&lt;/font&gt;&lt;/div&gt;&lt;div style=&quot;font-size: 16px;&quot;&gt;&lt;font style=&quot;font-size: 20px;&quot;&gt;This flowchart is for the originals&lt;/font&gt;&lt;/div&gt;" style="text;html=1;strokeColor=none;fillColor=none;align=center;verticalAlign=top;whiteSpace=wrap;rounded=0;" parent="GzwksDXFayszBQo7reNW-93" vertex="1">
          <mxGeometry x="39.75" width="560" height="170" as="geometry" />
        </mxCell>
        <mxCell id="DtGymJpomRaIwwKiFIf4-63" style="edgeStyle=orthogonalEdgeStyle;rounded=0;orthogonalLoop=1;jettySize=auto;html=1;exitX=0.5;exitY=1;exitDx=0;exitDy=0;entryX=0.5;entryY=0;entryDx=0;entryDy=0;" parent="GzwksDXFayszBQo7reNW-93" source="GzwksDXFayszBQo7reNW-176" target="DtGymJpomRaIwwKiFIf4-53" edge="1">
          <mxGeometry relative="1" as="geometry">
            <mxPoint x="319.75" y="1830" as="sourcePoint" />
          </mxGeometry>
        </mxCell>
        <mxCell id="GzwksDXFayszBQo7reNW-176" value="&lt;p style=&quot;line-height: 0%;&quot;&gt;&lt;/p&gt;&lt;pre style=&quot;line-height: 150%;&quot;&gt;&lt;br&gt;&lt;/pre&gt;&lt;p&gt;&lt;/p&gt;" style="rounded=0;whiteSpace=wrap;html=1;glass=0;shadow=0;gradientColor=none;fillColor=none;movable=1;resizable=1;rotatable=1;deletable=1;editable=1;locked=0;connectable=1;container=1;align=center;noLabel=0;dropTarget=1;expand=1;backgroundOutline=0;autosize=1;recursiveResize=0;" parent="GzwksDXFayszBQo7reNW-93" vertex="1">
          <mxGeometry x="60" y="880" width="520" height="950" as="geometry">
            <mxRectangle x="40" y="-1120" width="50" height="40" as="alternateBounds" />
          </mxGeometry>
        </mxCell>
        <mxCell id="GzwksDXFayszBQo7reNW-187" value="&lt;span style=&quot;font-size: 20px;&quot;&gt;&lt;b&gt;B_set_up_sph_giant.py&lt;/b&gt;&lt;/span&gt;" style="text;html=1;strokeColor=none;fillColor=none;align=center;verticalAlign=middle;whiteSpace=wrap;rounded=0;" parent="GzwksDXFayszBQo7reNW-176" vertex="1">
          <mxGeometry x="40.25" width="440" height="40" as="geometry" />
        </mxCell>
        <mxCell id="DtGymJpomRaIwwKiFIf4-0" value="imports&lt;br&gt;load xiTau parameters&lt;br&gt;Set SPH/relaxation parameters" style="rounded=1;whiteSpace=wrap;html=1;" parent="GzwksDXFayszBQo7reNW-176" vertex="1">
          <mxGeometry x="140" y="60" width="240" height="50.64" as="geometry" />
        </mxCell>
        <mxCell id="DtGymJpomRaIwwKiFIf4-13" value="" style="edgeStyle=orthogonalEdgeStyle;rounded=0;orthogonalLoop=1;jettySize=auto;html=1;exitX=0.5;exitY=1;exitDx=0;exitDy=0;" parent="GzwksDXFayszBQo7reNW-176" source="DtGymJpomRaIwwKiFIf4-0" target="DtGymJpomRaIwwKiFIf4-12" edge="1">
          <mxGeometry relative="1" as="geometry">
            <mxPoint x="260" y="210" as="sourcePoint" />
          </mxGeometry>
        </mxCell>
        <mxCell id="DtGymJpomRaIwwKiFIf4-15" value="" style="edgeStyle=orthogonalEdgeStyle;rounded=0;orthogonalLoop=1;jettySize=auto;html=1;" parent="GzwksDXFayszBQo7reNW-176" source="DtGymJpomRaIwwKiFIf4-12" target="DtGymJpomRaIwwKiFIf4-14" edge="1">
          <mxGeometry relative="1" as="geometry" />
        </mxCell>
        <mxCell id="DtGymJpomRaIwwKiFIf4-12" value="Load giant model" style="shape=parallelogram;perimeter=parallelogramPerimeter;whiteSpace=wrap;html=1;fixedSize=1;rounded=0;" parent="GzwksDXFayszBQo7reNW-176" vertex="1">
          <mxGeometry x="190.25" y="150" width="140" height="60" as="geometry" />
        </mxCell>
        <mxCell id="_zOlBHXcYFgcANZDZTEM-2" value="" style="edgeStyle=orthogonalEdgeStyle;rounded=0;orthogonalLoop=1;jettySize=auto;html=1;" parent="GzwksDXFayszBQo7reNW-176" source="DtGymJpomRaIwwKiFIf4-14" target="_zOlBHXcYFgcANZDZTEM-1" edge="1">
          <mxGeometry relative="1" as="geometry" />
        </mxCell>
        <mxCell id="DtGymJpomRaIwwKiFIf4-14" value="Set up triple system" style="whiteSpace=wrap;html=1;rounded=0;" parent="GzwksDXFayszBQo7reNW-176" vertex="1">
          <mxGeometry x="190" y="250" width="140" height="60" as="geometry" />
        </mxCell>
        <mxCell id="DtGymJpomRaIwwKiFIf4-21" value="" style="edgeStyle=orthogonalEdgeStyle;rounded=0;orthogonalLoop=1;jettySize=auto;html=1;entryX=0.5;entryY=0;entryDx=0;entryDy=0;" parent="GzwksDXFayszBQo7reNW-176" source="DtGymJpomRaIwwKiFIf4-18" target="DtGymJpomRaIwwKiFIf4-22" edge="1">
          <mxGeometry relative="1" as="geometry">
            <mxPoint x="260.29999999999995" y="570" as="targetPoint" />
          </mxGeometry>
        </mxCell>
        <mxCell id="DtGymJpomRaIwwKiFIf4-18" value="Set up codes&lt;br&gt;SPH code: Fi&amp;nbsp; &amp;nbsp; &amp;nbsp;&amp;nbsp;&lt;br&gt;Nbody code: Huayno" style="whiteSpace=wrap;html=1;rounded=0;" parent="GzwksDXFayszBQo7reNW-176" vertex="1">
          <mxGeometry x="180" y="450" width="160" height="60" as="geometry" />
        </mxCell>
        <mxCell id="DtGymJpomRaIwwKiFIf4-39" value="" style="edgeStyle=orthogonalEdgeStyle;rounded=0;orthogonalLoop=1;jettySize=auto;html=1;" parent="GzwksDXFayszBQo7reNW-176" source="DtGymJpomRaIwwKiFIf4-22" target="DtGymJpomRaIwwKiFIf4-38" edge="1">
          <mxGeometry relative="1" as="geometry" />
        </mxCell>
        <mxCell id="DtGymJpomRaIwwKiFIf4-22" value="Set up Bridge between&lt;br&gt;SPH and Nbody codes&lt;br&gt;(Nbody reinitialised? with mi6)" style="whiteSpace=wrap;html=1;rounded=0;" parent="GzwksDXFayszBQo7reNW-176" vertex="1">
          <mxGeometry x="170" y="550" width="180" height="70" as="geometry" />
        </mxCell>
        <mxCell id="DtGymJpomRaIwwKiFIf4-38" value="evolve_system()" style="whiteSpace=wrap;html=1;rounded=0;" parent="GzwksDXFayszBQo7reNW-176" vertex="1">
          <mxGeometry x="200.25" y="710" width="120" height="60" as="geometry" />
        </mxCell>
        <mxCell id="_zOlBHXcYFgcANZDZTEM-3" style="edgeStyle=orthogonalEdgeStyle;rounded=0;orthogonalLoop=1;jettySize=auto;html=1;exitX=0.5;exitY=1;exitDx=0;exitDy=0;" parent="GzwksDXFayszBQo7reNW-176" source="_zOlBHXcYFgcANZDZTEM-1" target="DtGymJpomRaIwwKiFIf4-18" edge="1">
          <mxGeometry relative="1" as="geometry" />
        </mxCell>
        <mxCell id="_zOlBHXcYFgcANZDZTEM-1" value="Convert giant to&lt;br&gt;100k SPH particles&lt;br&gt;(Uses Gadget2)" style="whiteSpace=wrap;html=1;rounded=0;" parent="GzwksDXFayszBQo7reNW-176" vertex="1">
          <mxGeometry x="180" y="350" width="160" height="60" as="geometry" />
        </mxCell>
        <mxCell id="DtGymJpomRaIwwKiFIf4-40" value="Stop" style="whiteSpace=wrap;html=1;rounded=1;" parent="GzwksDXFayszBQo7reNW-176" vertex="1">
          <mxGeometry x="140" y="870" width="240" height="40" as="geometry" />
        </mxCell>
        <mxCell id="DtGymJpomRaIwwKiFIf4-41" value="" style="edgeStyle=orthogonalEdgeStyle;rounded=0;orthogonalLoop=1;jettySize=auto;html=1;" parent="GzwksDXFayszBQo7reNW-176" source="DtGymJpomRaIwwKiFIf4-38" target="DtGymJpomRaIwwKiFIf4-40" edge="1">
          <mxGeometry relative="1" as="geometry" />
        </mxCell>
        <mxCell id="DtGymJpomRaIwwKiFIf4-42" value="&lt;p style=&quot;line-height: 0%;&quot;&gt;&lt;/p&gt;&lt;pre style=&quot;line-height: 150%;&quot;&gt;&lt;br&gt;&lt;/pre&gt;&lt;p&gt;&lt;/p&gt;" style="rounded=0;whiteSpace=wrap;html=1;glass=0;shadow=0;gradientColor=none;fillColor=none;movable=1;resizable=1;rotatable=1;deletable=1;editable=1;locked=0;connectable=1;container=1;align=center;noLabel=0;dropTarget=1;expand=1;backgroundOutline=0;autosize=1;recursiveResize=0;" parent="GzwksDXFayszBQo7reNW-93" vertex="1">
          <mxGeometry x="59.5" y="2020" width="520.5" height="400" as="geometry">
            <mxRectangle x="40" y="-1120" width="50" height="40" as="alternateBounds" />
          </mxGeometry>
        </mxCell>
        <mxCell id="DtGymJpomRaIwwKiFIf4-53" value="&lt;h1 style=&quot;border-color: var(--border-color); line-height: 18px;&quot;&gt;&lt;font style=&quot;font-size: 20px;&quot;&gt;C_simulate_sph_triple.py&lt;/font&gt;&lt;/h1&gt;" style="text;html=1;strokeColor=none;fillColor=none;align=center;verticalAlign=middle;whiteSpace=wrap;rounded=0;" parent="DtGymJpomRaIwwKiFIf4-42" vertex="1">
          <mxGeometry x="40" width="440" height="40" as="geometry" />
        </mxCell>
        <mxCell id="DtGymJpomRaIwwKiFIf4-66" value="imports&lt;br&gt;load xiTau parameters&lt;br&gt;Set simulation parameters" style="rounded=1;whiteSpace=wrap;html=1;" parent="DtGymJpomRaIwwKiFIf4-42" vertex="1">
          <mxGeometry x="140.25" y="60" width="240" height="50.64" as="geometry" />
        </mxCell>
        <mxCell id="DtGymJpomRaIwwKiFIf4-67" value="" style="edgeStyle=orthogonalEdgeStyle;rounded=0;orthogonalLoop=1;jettySize=auto;html=1;exitX=0.5;exitY=1;exitDx=0;exitDy=0;" parent="DtGymJpomRaIwwKiFIf4-42" source="DtGymJpomRaIwwKiFIf4-66" target="DtGymJpomRaIwwKiFIf4-69" edge="1">
          <mxGeometry relative="1" as="geometry">
            <mxPoint x="260.25" y="210" as="sourcePoint" />
          </mxGeometry>
        </mxCell>
        <mxCell id="DtGymJpomRaIwwKiFIf4-69" value="Load relaxed&lt;br&gt;gas &amp;amp; dm" style="shape=parallelogram;perimeter=parallelogramPerimeter;whiteSpace=wrap;html=1;fixedSize=1;rounded=0;" parent="DtGymJpomRaIwwKiFIf4-42" vertex="1">
          <mxGeometry x="190.5" y="150" width="140" height="60" as="geometry" />
        </mxCell>
      </root>
    </mxGraphModel>
  </diagram>
</mxfile>
